<svg xmlns="http://www.w3.org/2000/svg" viewBox="0 0 800 500" font-family="ui-sans-serif,system-ui">
  <defs>
    <linearGradient id="ln" x1="0" y1="0" x2="1" y2="0">
      <stop offset="0%" stop-color="#0ea5e9"/><stop offset="100%" stop-color="#6366f1"/>
    </linearGradient>
  </defs>
  <rect x="0" y="0" width="800" height="500" rx="14" fill="#0d0d17"/>
  <rect x="0" y="0" width="800" height="38" rx="14" fill="#161627"/>
  <rect x="0" y="24" width="800" height="14" fill="#161627"/>
  <circle cx="24" cy="19" r="6" fill="#ff5f57"/><circle cx="44" cy="19" r="6" fill="#febc2e"/><circle cx="64" cy="19" r="6" fill="#28c840"/>
  <rect x="90" y="9" width="620" height="20" rx="10" fill="#0d0d17"/>
  
    
    <rect x="110" y="70" width="180" height="380" rx="26" fill="#111120" stroke="#2c2c4a" stroke-width="2"/>
    <rect x="128" y="100" width="144" height="110" rx="12" fill="#0ea5e9" opacity="0.85"/>
    <rect x="128" y="230" width="144" height="30" rx="8" fill="#161627"/><rect x="128" y="272" width="144" height="30" rx="8" fill="#161627"/><rect x="128" y="314" width="144" height="30" rx="8" fill="#161627"/><rect x="128" y="356" width="144" height="30" rx="8" fill="#161627"/>
    <rect x="158" y="410" width="84" height="24" rx="12" fill="url(#ln)"/>
    <rect x="330" y="70" width="180" height="380" rx="26" fill="#111120" stroke="#2c2c4a" stroke-width="2"/>
    <rect x="348" y="100" width="144" height="110" rx="12" fill="#6366f1" opacity="0.85"/>
    <rect x="348" y="230" width="144" height="30" rx="8" fill="#161627"/><rect x="348" y="272" width="144" height="30" rx="8" fill="#161627"/><rect x="348" y="314" width="144" height="30" rx="8" fill="#161627"/><rect x="348" y="356" width="144" height="30" rx="8" fill="#161627"/>
    <rect x="378" y="410" width="84" height="24" rx="12" fill="url(#ln)"/>
    <rect x="550" y="70" width="180" height="380" rx="26" fill="#111120" stroke="#2c2c4a" stroke-width="2"/>
    <rect x="568" y="100" width="144" height="110" rx="12" fill="#0ea5e9" opacity="0.85"/>
    <rect x="568" y="230" width="144" height="30" rx="8" fill="#161627"/><rect x="568" y="272" width="144" height="30" rx="8" fill="#161627"/><rect x="568" y="314" width="144" height="30" rx="8" fill="#161627"/><rect x="568" y="356" width="144" height="30" rx="8" fill="#161627"/>
    <rect x="598" y="410" width="84" height="24" rx="12" fill="url(#ln)"/>
</svg>