<svg xmlns="http://www.w3.org/2000/svg" viewBox="0 0 800 500" font-family="ui-sans-serif,system-ui">
  <defs>
    <linearGradient id="ln" x1="0" y1="0" x2="1" y2="0">
      <stop offset="0%" stop-color="#ec4899"/><stop offset="100%" stop-color="#8b5cf6"/>
    </linearGradient>
  </defs>
  <rect x="0" y="0" width="800" height="500" rx="14" fill="#0d0d17"/>
  <rect x="0" y="0" width="800" height="38" rx="14" fill="#161627"/>
  <rect x="0" y="24" width="800" height="14" fill="#161627"/>
  <circle cx="24" cy="19" r="6" fill="#ff5f57"/><circle cx="44" cy="19" r="6" fill="#febc2e"/><circle cx="64" cy="19" r="6" fill="#28c840"/>
  <rect x="90" y="9" width="620" height="20" rx="10" fill="#0d0d17"/>
  
    
    <rect x="60" y="70" width="210" height="110" rx="12" fill="#161627"/>
    <rect x="78" y="88" width="64" height="48" rx="8" fill="#ec4899" opacity="0.85"/>
    <rect x="78" y="0" width="0" height="8" rx="4" fill="#000" opacity="0"/>
    <rect x="152" y="92" width="100" height="9" rx="4" fill="#e2e8f0" opacity="0.75"/>
    <rect x="152" y="112" width="80" height="7" rx="3.5" fill="#3a3a5c"/>
    <rect x="78" y="148" width="120" height="7" rx="3.5" fill="#3a3a5c"/>
    <rect x="300" y="70" width="210" height="110" rx="12" fill="#161627"/>
    <rect x="318" y="88" width="64" height="48" rx="8" fill="#8b5cf6" opacity="0.85"/>
    <rect x="318" y="0" width="0" height="8" rx="4" fill="#000" opacity="0"/>
    <rect x="392" y="92" width="100" height="9" rx="4" fill="#e2e8f0" opacity="0.75"/>
    <rect x="392" y="112" width="80" height="7" rx="3.5" fill="#3a3a5c"/>
    <rect x="318" y="148" width="120" height="7" rx="3.5" fill="#3a3a5c"/>
    <rect x="540" y="70" width="210" height="110" rx="12" fill="#161627"/>
    <rect x="558" y="88" width="64" height="48" rx="8" fill="#ec4899" opacity="0.85"/>
    <rect x="558" y="0" width="0" height="8" rx="4" fill="#000" opacity="0"/>
    <rect x="632" y="92" width="100" height="9" rx="4" fill="#e2e8f0" opacity="0.75"/>
    <rect x="632" y="112" width="80" height="7" rx="3.5" fill="#3a3a5c"/>
    <rect x="558" y="148" width="120" height="7" rx="3.5" fill="#3a3a5c"/>
    <rect x="60" y="205" width="210" height="110" rx="12" fill="#161627"/>
    <rect x="78" y="223" width="64" height="48" rx="8" fill="#8b5cf6" opacity="0.85"/>
    <rect x="78" y="0" width="0" height="8" rx="4" fill="#000" opacity="0"/>
    <rect x="152" y="227" width="100" height="9" rx="4" fill="#e2e8f0" opacity="0.75"/>
    <rect x="152" y="247" width="80" height="7" rx="3.5" fill="#3a3a5c"/>
    <rect x="78" y="283" width="120" height="7" rx="3.5" fill="#3a3a5c"/>
    <rect x="300" y="205" width="210" height="110" rx="12" fill="#161627"/>
    <rect x="318" y="223" width="64" height="48" rx="8" fill="#ec4899" opacity="0.85"/>
    <rect x="318" y="0" width="0" height="8" rx="4" fill="#000" opacity="0"/>
    <rect x="392" y="227" width="100" height="9" rx="4" fill="#e2e8f0" opacity="0.75"/>
    <rect x="392" y="247" width="80" height="7" rx="3.5" fill="#3a3a5c"/>
    <rect x="318" y="283" width="120" height="7" rx="3.5" fill="#3a3a5c"/>
    <rect x="540" y="205" width="210" height="110" rx="12" fill="#161627"/>
    <rect x="558" y="223" width="64" height="48" rx="8" fill="#8b5cf6" opacity="0.85"/>
    <rect x="558" y="0" width="0" height="8" rx="4" fill="#000" opacity="0"/>
    <rect x="632" y="227" width="100" height="9" rx="4" fill="#e2e8f0" opacity="0.75"/>
    <rect x="632" y="247" width="80" height="7" rx="3.5" fill="#3a3a5c"/>
    <rect x="558" y="283" width="120" height="7" rx="3.5" fill="#3a3a5c"/>
    <rect x="60" y="340" width="210" height="110" rx="12" fill="#161627"/>
    <rect x="78" y="358" width="64" height="48" rx="8" fill="#ec4899" opacity="0.85"/>
    <rect x="78" y="0" width="0" height="8" rx="4" fill="#000" opacity="0"/>
    <rect x="152" y="362" width="100" height="9" rx="4" fill="#e2e8f0" opacity="0.75"/>
    <rect x="152" y="382" width="80" height="7" rx="3.5" fill="#3a3a5c"/>
    <rect x="78" y="418" width="120" height="7" rx="3.5" fill="#3a3a5c"/>
    <rect x="300" y="340" width="210" height="110" rx="12" fill="#161627"/>
    <rect x="318" y="358" width="64" height="48" rx="8" fill="#8b5cf6" opacity="0.85"/>
    <rect x="318" y="0" width="0" height="8" rx="4" fill="#000" opacity="0"/>
    <rect x="392" y="362" width="100" height="9" rx="4" fill="#e2e8f0" opacity="0.75"/>
    <rect x="392" y="382" width="80" height="7" rx="3.5" fill="#3a3a5c"/>
    <rect x="318" y="418" width="120" height="7" rx="3.5" fill="#3a3a5c"/>
    <rect x="540" y="340" width="210" height="110" rx="12" fill="#161627"/>
    <rect x="558" y="358" width="64" height="48" rx="8" fill="#ec4899" opacity="0.85"/>
    <rect x="558" y="0" width="0" height="8" rx="4" fill="#000" opacity="0"/>
    <rect x="632" y="362" width="100" height="9" rx="4" fill="#e2e8f0" opacity="0.75"/>
    <rect x="632" y="382" width="80" height="7" rx="3.5" fill="#3a3a5c"/>
    <rect x="558" y="418" width="120" height="7" rx="3.5" fill="#3a3a5c"/>
</svg>